<mxfile host="65bd71144e" modified="2020-11-11T04:20:31.381Z" agent="5.0 (Macintosh; Intel Mac OS X 10_15_7) AppleWebKit/537.36 (KHTML, like Gecko) Code/1.51.0 Chrome/83.0.4103.122 Electron/9.3.3 Safari/537.36" etag="DhzDj8qEeVNbuM0FIk2K" version="13.6.5" pages="17">
    <diagram id="jSflmeTWKZC5N9udb8eS" name="Page-1">
        <mxGraphModel dx="1402" dy="860" grid="1" gridSize="10" guides="1" tooltips="1" connect="1" arrows="1" fold="1" page="1" pageScale="1" pageWidth="800" pageHeight="800" math="0" shadow="0">
            <root>
                <mxCell id="0"/>
                <mxCell id="1" parent="0"/>
                <mxCell id="6" value="5" style="whiteSpace=wrap;html=1;aspect=fixed;fontFamily=Fira Code;" parent="1" vertex="1">
                    <mxGeometry x="340" y="40" width="40" height="40" as="geometry"/>
                </mxCell>
                <mxCell id="3sSBsssJ497s5XPA8a3r-6" value="" style="whiteSpace=wrap;html=1;aspect=fixed;fontFamily=Fira Code;" parent="1" vertex="1">
                    <mxGeometry x="380" y="40" width="40" height="40" as="geometry"/>
                </mxCell>
                <mxCell id="3sSBsssJ497s5XPA8a3r-7" value="" style="whiteSpace=wrap;html=1;aspect=fixed;fontFamily=Fira Code;" parent="1" vertex="1">
                    <mxGeometry x="420" y="40" width="40" height="40" as="geometry"/>
                </mxCell>
            </root>
        </mxGraphModel>
    </diagram>
    <diagram name="Copy of Page-1" id="vW4O04oCvlxqWSpvt2fV">
        <mxGraphModel dx="1402" dy="860" grid="1" gridSize="10" guides="1" tooltips="1" connect="1" arrows="1" fold="1" page="1" pageScale="1" pageWidth="800" pageHeight="800" math="0" shadow="0">
            <root>
                <mxCell id="edkmVFXcTQLYBrRiFU7G-0"/>
                <mxCell id="edkmVFXcTQLYBrRiFU7G-1" parent="edkmVFXcTQLYBrRiFU7G-0"/>
                <mxCell id="edkmVFXcTQLYBrRiFU7G-2" value="5" style="whiteSpace=wrap;html=1;aspect=fixed;fontFamily=Fira Code;" parent="edkmVFXcTQLYBrRiFU7G-1" vertex="1">
                    <mxGeometry x="340" y="40" width="40" height="40" as="geometry"/>
                </mxCell>
                <mxCell id="edkmVFXcTQLYBrRiFU7G-3" value="10" style="whiteSpace=wrap;html=1;aspect=fixed;fontFamily=Fira Code;" parent="edkmVFXcTQLYBrRiFU7G-1" vertex="1">
                    <mxGeometry x="380" y="40" width="40" height="40" as="geometry"/>
                </mxCell>
                <mxCell id="gsvmyzwYFbpRsst4HRaz-0" value="" style="whiteSpace=wrap;html=1;aspect=fixed;fontFamily=Fira Code;" parent="edkmVFXcTQLYBrRiFU7G-1" vertex="1">
                    <mxGeometry x="420" y="40" width="40" height="40" as="geometry"/>
                </mxCell>
            </root>
        </mxGraphModel>
    </diagram>
    <diagram name="Copy of Copy of Page-1" id="3f-eCcMz_Pz4XnxtALBP">
        <mxGraphModel dx="1402" dy="860" grid="1" gridSize="10" guides="1" tooltips="1" connect="1" arrows="1" fold="1" page="1" pageScale="1" pageWidth="800" pageHeight="800" math="0" shadow="0">
            <root>
                <mxCell id="F4AiqEDkDBKOchriZzQ6-0"/>
                <mxCell id="F4AiqEDkDBKOchriZzQ6-1" parent="F4AiqEDkDBKOchriZzQ6-0"/>
                <mxCell id="F4AiqEDkDBKOchriZzQ6-2" value="5" style="whiteSpace=wrap;html=1;aspect=fixed;fontFamily=Fira Code;" parent="F4AiqEDkDBKOchriZzQ6-1" vertex="1">
                    <mxGeometry x="340" y="40" width="40" height="40" as="geometry"/>
                </mxCell>
                <mxCell id="F4AiqEDkDBKOchriZzQ6-3" value="10" style="whiteSpace=wrap;html=1;aspect=fixed;fontFamily=Fira Code;" parent="F4AiqEDkDBKOchriZzQ6-1" vertex="1">
                    <mxGeometry x="380" y="40" width="40" height="40" as="geometry"/>
                </mxCell>
                <mxCell id="F4AiqEDkDBKOchriZzQ6-4" value="20" style="whiteSpace=wrap;html=1;aspect=fixed;fontFamily=Fira Code;" parent="F4AiqEDkDBKOchriZzQ6-1" vertex="1">
                    <mxGeometry x="420" y="40" width="40" height="40" as="geometry"/>
                </mxCell>
            </root>
        </mxGraphModel>
    </diagram>
    <diagram name="Copy of Copy of Copy of Copy of Page-1" id="lpBtyJ_4vhKZe7iIDdcH">
        <mxGraphModel dx="1402" dy="860" grid="1" gridSize="10" guides="1" tooltips="1" connect="1" arrows="1" fold="1" page="1" pageScale="1" pageWidth="800" pageHeight="800" math="0" shadow="0">
            <root>
                <mxCell id="Ja6uFD7UK4U0nX0tvIoA-0"/>
                <mxCell id="Ja6uFD7UK4U0nX0tvIoA-1" parent="Ja6uFD7UK4U0nX0tvIoA-0"/>
                <mxCell id="Ja6uFD7UK4U0nX0tvIoA-2" value="5" style="whiteSpace=wrap;html=1;aspect=fixed;fontFamily=Fira Code;" parent="Ja6uFD7UK4U0nX0tvIoA-1" vertex="1">
                    <mxGeometry x="340" y="40" width="40" height="40" as="geometry"/>
                </mxCell>
                <mxCell id="Ja6uFD7UK4U0nX0tvIoA-3" style="edgeStyle=none;rounded=0;orthogonalLoop=1;jettySize=auto;html=1;exitX=0;exitY=1;exitDx=0;exitDy=0;entryX=0.5;entryY=0;entryDx=0;entryDy=0;endArrow=none;endFill=0;fontFamily=Fira Code;" parent="Ja6uFD7UK4U0nX0tvIoA-1" source="Ja6uFD7UK4U0nX0tvIoA-4" target="Ja6uFD7UK4U0nX0tvIoA-7" edge="1">
                    <mxGeometry relative="1" as="geometry"/>
                </mxCell>
                <mxCell id="Ja6uFD7UK4U0nX0tvIoA-4" value="10" style="whiteSpace=wrap;html=1;aspect=fixed;fontFamily=Fira Code;" parent="Ja6uFD7UK4U0nX0tvIoA-1" vertex="1">
                    <mxGeometry x="380" y="40" width="40" height="40" as="geometry"/>
                </mxCell>
                <mxCell id="Ja6uFD7UK4U0nX0tvIoA-5" value="20" style="whiteSpace=wrap;html=1;aspect=fixed;fontFamily=Fira Code;" parent="Ja6uFD7UK4U0nX0tvIoA-1" vertex="1">
                    <mxGeometry x="420" y="40" width="40" height="40" as="geometry"/>
                </mxCell>
                <mxCell id="Ja6uFD7UK4U0nX0tvIoA-6" value="" style="whiteSpace=wrap;html=1;aspect=fixed;fontFamily=Fira Code;" parent="Ja6uFD7UK4U0nX0tvIoA-1" vertex="1">
                    <mxGeometry x="260" y="120" width="40" height="40" as="geometry"/>
                </mxCell>
                <mxCell id="Ja6uFD7UK4U0nX0tvIoA-7" value="" style="whiteSpace=wrap;html=1;aspect=fixed;fontFamily=Fira Code;" parent="Ja6uFD7UK4U0nX0tvIoA-1" vertex="1">
                    <mxGeometry x="300" y="120" width="40" height="40" as="geometry"/>
                </mxCell>
                <mxCell id="Ja6uFD7UK4U0nX0tvIoA-8" value="" style="whiteSpace=wrap;html=1;aspect=fixed;fontFamily=Fira Code;" parent="Ja6uFD7UK4U0nX0tvIoA-1" vertex="1">
                    <mxGeometry x="340" y="120" width="40" height="40" as="geometry"/>
                </mxCell>
                <mxCell id="Ja6uFD7UK4U0nX0tvIoA-9" value="" style="whiteSpace=wrap;html=1;aspect=fixed;fontFamily=Fira Code;" parent="Ja6uFD7UK4U0nX0tvIoA-1" vertex="1">
                    <mxGeometry x="100" y="120" width="40" height="40" as="geometry"/>
                </mxCell>
                <mxCell id="Ja6uFD7UK4U0nX0tvIoA-10" value="" style="whiteSpace=wrap;html=1;aspect=fixed;fontFamily=Fira Code;" parent="Ja6uFD7UK4U0nX0tvIoA-1" vertex="1">
                    <mxGeometry x="140" y="120" width="40" height="40" as="geometry"/>
                </mxCell>
                <mxCell id="Ja6uFD7UK4U0nX0tvIoA-11" style="edgeStyle=none;rounded=0;orthogonalLoop=1;jettySize=auto;html=1;exitX=0.5;exitY=0;exitDx=0;exitDy=0;entryX=0;entryY=1;entryDx=0;entryDy=0;endArrow=none;endFill=0;fontFamily=Fira Code;" parent="Ja6uFD7UK4U0nX0tvIoA-1" source="Ja6uFD7UK4U0nX0tvIoA-10" target="Ja6uFD7UK4U0nX0tvIoA-2" edge="1">
                    <mxGeometry relative="1" as="geometry"/>
                </mxCell>
                <mxCell id="Ja6uFD7UK4U0nX0tvIoA-12" value="" style="whiteSpace=wrap;html=1;aspect=fixed;fontFamily=Fira Code;" parent="Ja6uFD7UK4U0nX0tvIoA-1" vertex="1">
                    <mxGeometry x="180" y="120" width="40" height="40" as="geometry"/>
                </mxCell>
            </root>
        </mxGraphModel>
    </diagram>
    <diagram name="Copy of Copy of Copy of Copy of Copy of Page-1" id="lNsPHtc8tXN2VJZBAXIe">
        <mxGraphModel dx="1402" dy="860" grid="1" gridSize="10" guides="1" tooltips="1" connect="1" arrows="1" fold="1" page="1" pageScale="1" pageWidth="800" pageHeight="800" math="0" shadow="0">
            <root>
                <mxCell id="J4rQiWH1Fn5GhnUWShdT-0"/>
                <mxCell id="J4rQiWH1Fn5GhnUWShdT-1" parent="J4rQiWH1Fn5GhnUWShdT-0"/>
                <mxCell id="J4rQiWH1Fn5GhnUWShdT-2" value="10" style="whiteSpace=wrap;html=1;aspect=fixed;fontFamily=Fira Code;" parent="J4rQiWH1Fn5GhnUWShdT-1" vertex="1">
                    <mxGeometry x="340" y="40" width="40" height="40" as="geometry"/>
                </mxCell>
                <mxCell id="J4rQiWH1Fn5GhnUWShdT-3" style="edgeStyle=none;rounded=0;orthogonalLoop=1;jettySize=auto;html=1;exitX=0;exitY=1;exitDx=0;exitDy=0;entryX=0.5;entryY=0;entryDx=0;entryDy=0;endArrow=none;endFill=0;fontFamily=Fira Code;" parent="J4rQiWH1Fn5GhnUWShdT-1" source="J4rQiWH1Fn5GhnUWShdT-4" target="J4rQiWH1Fn5GhnUWShdT-7" edge="1">
                    <mxGeometry relative="1" as="geometry"/>
                </mxCell>
                <mxCell id="J4rQiWH1Fn5GhnUWShdT-4" value="20" style="whiteSpace=wrap;html=1;aspect=fixed;fontFamily=Fira Code;" parent="J4rQiWH1Fn5GhnUWShdT-1" vertex="1">
                    <mxGeometry x="380" y="40" width="40" height="40" as="geometry"/>
                </mxCell>
                <mxCell id="J4rQiWH1Fn5GhnUWShdT-5" value="" style="whiteSpace=wrap;html=1;aspect=fixed;fontFamily=Fira Code;" parent="J4rQiWH1Fn5GhnUWShdT-1" vertex="1">
                    <mxGeometry x="420" y="40" width="40" height="40" as="geometry"/>
                </mxCell>
                <mxCell id="J4rQiWH1Fn5GhnUWShdT-6" value="" style="whiteSpace=wrap;html=1;aspect=fixed;fontFamily=Fira Code;" parent="J4rQiWH1Fn5GhnUWShdT-1" vertex="1">
                    <mxGeometry x="260" y="120" width="40" height="40" as="geometry"/>
                </mxCell>
                <mxCell id="J4rQiWH1Fn5GhnUWShdT-7" value="" style="whiteSpace=wrap;html=1;aspect=fixed;fontFamily=Fira Code;" parent="J4rQiWH1Fn5GhnUWShdT-1" vertex="1">
                    <mxGeometry x="300" y="120" width="40" height="40" as="geometry"/>
                </mxCell>
                <mxCell id="J4rQiWH1Fn5GhnUWShdT-8" value="" style="whiteSpace=wrap;html=1;aspect=fixed;fontFamily=Fira Code;" parent="J4rQiWH1Fn5GhnUWShdT-1" vertex="1">
                    <mxGeometry x="340" y="120" width="40" height="40" as="geometry"/>
                </mxCell>
                <mxCell id="J4rQiWH1Fn5GhnUWShdT-9" value="5" style="whiteSpace=wrap;html=1;aspect=fixed;fontFamily=Fira Code;" parent="J4rQiWH1Fn5GhnUWShdT-1" vertex="1">
                    <mxGeometry x="100" y="120" width="40" height="40" as="geometry"/>
                </mxCell>
                <mxCell id="J4rQiWH1Fn5GhnUWShdT-10" value="" style="whiteSpace=wrap;html=1;aspect=fixed;fontFamily=Fira Code;" parent="J4rQiWH1Fn5GhnUWShdT-1" vertex="1">
                    <mxGeometry x="140" y="120" width="40" height="40" as="geometry"/>
                </mxCell>
                <mxCell id="J4rQiWH1Fn5GhnUWShdT-11" style="edgeStyle=none;rounded=0;orthogonalLoop=1;jettySize=auto;html=1;exitX=0.5;exitY=0;exitDx=0;exitDy=0;entryX=0;entryY=1;entryDx=0;entryDy=0;endArrow=none;endFill=0;fontFamily=Fira Code;" parent="J4rQiWH1Fn5GhnUWShdT-1" source="J4rQiWH1Fn5GhnUWShdT-10" target="J4rQiWH1Fn5GhnUWShdT-2" edge="1">
                    <mxGeometry relative="1" as="geometry"/>
                </mxCell>
                <mxCell id="J4rQiWH1Fn5GhnUWShdT-12" value="" style="whiteSpace=wrap;html=1;aspect=fixed;fontFamily=Fira Code;" parent="J4rQiWH1Fn5GhnUWShdT-1" vertex="1">
                    <mxGeometry x="180" y="120" width="40" height="40" as="geometry"/>
                </mxCell>
            </root>
        </mxGraphModel>
    </diagram>
    <diagram name="Copy of Copy of Copy of Page-1" id="cWSgJ4WwTyV_Buq5GDcI">
        <mxGraphModel dx="1402" dy="860" grid="1" gridSize="10" guides="1" tooltips="1" connect="1" arrows="1" fold="1" page="1" pageScale="1" pageWidth="800" pageHeight="800" math="0" shadow="0">
            <root>
                <mxCell id="eugpAuXFZZ59PvQqNU6A-0"/>
                <mxCell id="eugpAuXFZZ59PvQqNU6A-1" parent="eugpAuXFZZ59PvQqNU6A-0"/>
                <mxCell id="eugpAuXFZZ59PvQqNU6A-2" value="10" style="whiteSpace=wrap;html=1;aspect=fixed;fontFamily=Fira Code;" parent="eugpAuXFZZ59PvQqNU6A-1" vertex="1">
                    <mxGeometry x="340" y="40" width="40" height="40" as="geometry"/>
                </mxCell>
                <mxCell id="o6DHdoXIGCm-vmMk9d78-1" style="edgeStyle=none;rounded=0;orthogonalLoop=1;jettySize=auto;html=1;exitX=0;exitY=1;exitDx=0;exitDy=0;entryX=0.5;entryY=0;entryDx=0;entryDy=0;endArrow=none;endFill=0;fontFamily=Fira Code;" parent="eugpAuXFZZ59PvQqNU6A-1" source="eugpAuXFZZ59PvQqNU6A-3" target="3DvH5JIvGUksHtCnbaT4-1" edge="1">
                    <mxGeometry relative="1" as="geometry"/>
                </mxCell>
                <mxCell id="eugpAuXFZZ59PvQqNU6A-3" value="" style="whiteSpace=wrap;html=1;aspect=fixed;fontFamily=Fira Code;" parent="eugpAuXFZZ59PvQqNU6A-1" vertex="1">
                    <mxGeometry x="380" y="40" width="40" height="40" as="geometry"/>
                </mxCell>
                <mxCell id="eugpAuXFZZ59PvQqNU6A-4" value="" style="whiteSpace=wrap;html=1;aspect=fixed;fontFamily=Fira Code;" parent="eugpAuXFZZ59PvQqNU6A-1" vertex="1">
                    <mxGeometry x="420" y="40" width="40" height="40" as="geometry"/>
                </mxCell>
                <mxCell id="3DvH5JIvGUksHtCnbaT4-0" value="20" style="whiteSpace=wrap;html=1;aspect=fixed;fontFamily=Fira Code;" parent="eugpAuXFZZ59PvQqNU6A-1" vertex="1">
                    <mxGeometry x="260" y="120" width="40" height="40" as="geometry"/>
                </mxCell>
                <mxCell id="3DvH5JIvGUksHtCnbaT4-1" value="" style="whiteSpace=wrap;html=1;aspect=fixed;fontFamily=Fira Code;" parent="eugpAuXFZZ59PvQqNU6A-1" vertex="1">
                    <mxGeometry x="300" y="120" width="40" height="40" as="geometry"/>
                </mxCell>
                <mxCell id="3DvH5JIvGUksHtCnbaT4-2" value="" style="whiteSpace=wrap;html=1;aspect=fixed;fontFamily=Fira Code;" parent="eugpAuXFZZ59PvQqNU6A-1" vertex="1">
                    <mxGeometry x="340" y="120" width="40" height="40" as="geometry"/>
                </mxCell>
                <mxCell id="3DvH5JIvGUksHtCnbaT4-3" value="5" style="whiteSpace=wrap;html=1;aspect=fixed;fontFamily=Fira Code;" parent="eugpAuXFZZ59PvQqNU6A-1" vertex="1">
                    <mxGeometry x="100" y="120" width="40" height="40" as="geometry"/>
                </mxCell>
                <mxCell id="3DvH5JIvGUksHtCnbaT4-4" value="" style="whiteSpace=wrap;html=1;aspect=fixed;fontFamily=Fira Code;" parent="eugpAuXFZZ59PvQqNU6A-1" vertex="1">
                    <mxGeometry x="140" y="120" width="40" height="40" as="geometry"/>
                </mxCell>
                <mxCell id="o6DHdoXIGCm-vmMk9d78-0" style="edgeStyle=none;rounded=0;orthogonalLoop=1;jettySize=auto;html=1;exitX=0.5;exitY=0;exitDx=0;exitDy=0;entryX=0;entryY=1;entryDx=0;entryDy=0;endArrow=none;endFill=0;fontFamily=Fira Code;" parent="eugpAuXFZZ59PvQqNU6A-1" source="3DvH5JIvGUksHtCnbaT4-4" target="eugpAuXFZZ59PvQqNU6A-2" edge="1">
                    <mxGeometry relative="1" as="geometry"/>
                </mxCell>
                <mxCell id="3DvH5JIvGUksHtCnbaT4-5" value="" style="whiteSpace=wrap;html=1;aspect=fixed;fontFamily=Fira Code;" parent="eugpAuXFZZ59PvQqNU6A-1" vertex="1">
                    <mxGeometry x="180" y="120" width="40" height="40" as="geometry"/>
                </mxCell>
            </root>
        </mxGraphModel>
    </diagram>
    <diagram name="Copy of Copy of Copy of Copy of Page-1" id="ow6mjXKGOrk9qTL-9Fiu">
        <mxGraphModel dx="1402" dy="860" grid="1" gridSize="10" guides="1" tooltips="1" connect="1" arrows="1" fold="1" page="1" pageScale="1" pageWidth="800" pageHeight="800" math="0" shadow="0">
            <root>
                <mxCell id="bh-Q_smUvotEOLrtS8Co-0"/>
                <mxCell id="bh-Q_smUvotEOLrtS8Co-1" parent="bh-Q_smUvotEOLrtS8Co-0"/>
                <mxCell id="bh-Q_smUvotEOLrtS8Co-2" value="10" style="whiteSpace=wrap;html=1;aspect=fixed;fontFamily=Fira Code;" parent="bh-Q_smUvotEOLrtS8Co-1" vertex="1">
                    <mxGeometry x="340" y="40" width="40" height="40" as="geometry"/>
                </mxCell>
                <mxCell id="bh-Q_smUvotEOLrtS8Co-3" style="edgeStyle=none;rounded=0;orthogonalLoop=1;jettySize=auto;html=1;exitX=0;exitY=1;exitDx=0;exitDy=0;entryX=0.5;entryY=0;entryDx=0;entryDy=0;endArrow=none;endFill=0;fontFamily=Fira Code;" parent="bh-Q_smUvotEOLrtS8Co-1" source="bh-Q_smUvotEOLrtS8Co-4" target="bh-Q_smUvotEOLrtS8Co-7" edge="1">
                    <mxGeometry relative="1" as="geometry"/>
                </mxCell>
                <mxCell id="bh-Q_smUvotEOLrtS8Co-4" value="" style="whiteSpace=wrap;html=1;aspect=fixed;fontFamily=Fira Code;" parent="bh-Q_smUvotEOLrtS8Co-1" vertex="1">
                    <mxGeometry x="380" y="40" width="40" height="40" as="geometry"/>
                </mxCell>
                <mxCell id="bh-Q_smUvotEOLrtS8Co-5" value="" style="whiteSpace=wrap;html=1;aspect=fixed;fontFamily=Fira Code;" parent="bh-Q_smUvotEOLrtS8Co-1" vertex="1">
                    <mxGeometry x="420" y="40" width="40" height="40" as="geometry"/>
                </mxCell>
                <mxCell id="bh-Q_smUvotEOLrtS8Co-6" value="20" style="whiteSpace=wrap;html=1;aspect=fixed;fontFamily=Fira Code;" parent="bh-Q_smUvotEOLrtS8Co-1" vertex="1">
                    <mxGeometry x="260" y="120" width="40" height="40" as="geometry"/>
                </mxCell>
                <mxCell id="bh-Q_smUvotEOLrtS8Co-7" value="30" style="whiteSpace=wrap;html=1;aspect=fixed;fontFamily=Fira Code;" parent="bh-Q_smUvotEOLrtS8Co-1" vertex="1">
                    <mxGeometry x="300" y="120" width="40" height="40" as="geometry"/>
                </mxCell>
                <mxCell id="bh-Q_smUvotEOLrtS8Co-8" value="" style="whiteSpace=wrap;html=1;aspect=fixed;fontFamily=Fira Code;" parent="bh-Q_smUvotEOLrtS8Co-1" vertex="1">
                    <mxGeometry x="340" y="120" width="40" height="40" as="geometry"/>
                </mxCell>
                <mxCell id="bh-Q_smUvotEOLrtS8Co-9" value="5" style="whiteSpace=wrap;html=1;aspect=fixed;fontFamily=Fira Code;" parent="bh-Q_smUvotEOLrtS8Co-1" vertex="1">
                    <mxGeometry x="100" y="120" width="40" height="40" as="geometry"/>
                </mxCell>
                <mxCell id="bh-Q_smUvotEOLrtS8Co-10" value="" style="whiteSpace=wrap;html=1;aspect=fixed;fontFamily=Fira Code;" parent="bh-Q_smUvotEOLrtS8Co-1" vertex="1">
                    <mxGeometry x="140" y="120" width="40" height="40" as="geometry"/>
                </mxCell>
                <mxCell id="bh-Q_smUvotEOLrtS8Co-11" style="edgeStyle=none;rounded=0;orthogonalLoop=1;jettySize=auto;html=1;exitX=0.5;exitY=0;exitDx=0;exitDy=0;entryX=0;entryY=1;entryDx=0;entryDy=0;endArrow=none;endFill=0;fontFamily=Fira Code;" parent="bh-Q_smUvotEOLrtS8Co-1" source="bh-Q_smUvotEOLrtS8Co-10" target="bh-Q_smUvotEOLrtS8Co-2" edge="1">
                    <mxGeometry relative="1" as="geometry"/>
                </mxCell>
                <mxCell id="bh-Q_smUvotEOLrtS8Co-12" value="" style="whiteSpace=wrap;html=1;aspect=fixed;fontFamily=Fira Code;" parent="bh-Q_smUvotEOLrtS8Co-1" vertex="1">
                    <mxGeometry x="180" y="120" width="40" height="40" as="geometry"/>
                </mxCell>
            </root>
        </mxGraphModel>
    </diagram>
    <diagram name="Copy of Copy of Copy of Copy of Copy of Page-1" id="eTb29d6EsC4kxwq8kTm0">
        <mxGraphModel dx="1402" dy="860" grid="1" gridSize="10" guides="1" tooltips="1" connect="1" arrows="1" fold="1" page="1" pageScale="1" pageWidth="800" pageHeight="800" math="0" shadow="0">
            <root>
                <mxCell id="wp5Nh7wE5JxuKt0Tf9Hm-0"/>
                <mxCell id="wp5Nh7wE5JxuKt0Tf9Hm-1" parent="wp5Nh7wE5JxuKt0Tf9Hm-0"/>
                <mxCell id="wp5Nh7wE5JxuKt0Tf9Hm-2" value="10" style="whiteSpace=wrap;html=1;aspect=fixed;fontFamily=Fira Code;" parent="wp5Nh7wE5JxuKt0Tf9Hm-1" vertex="1">
                    <mxGeometry x="340" y="40" width="40" height="40" as="geometry"/>
                </mxCell>
                <mxCell id="wp5Nh7wE5JxuKt0Tf9Hm-3" style="edgeStyle=none;rounded=0;orthogonalLoop=1;jettySize=auto;html=1;exitX=0;exitY=1;exitDx=0;exitDy=0;entryX=0.5;entryY=0;entryDx=0;entryDy=0;endArrow=none;endFill=0;fontFamily=Fira Code;" parent="wp5Nh7wE5JxuKt0Tf9Hm-1" source="wp5Nh7wE5JxuKt0Tf9Hm-4" target="wp5Nh7wE5JxuKt0Tf9Hm-7" edge="1">
                    <mxGeometry relative="1" as="geometry"/>
                </mxCell>
                <mxCell id="wp5Nh7wE5JxuKt0Tf9Hm-4" value="" style="whiteSpace=wrap;html=1;aspect=fixed;fontFamily=Fira Code;" parent="wp5Nh7wE5JxuKt0Tf9Hm-1" vertex="1">
                    <mxGeometry x="380" y="40" width="40" height="40" as="geometry"/>
                </mxCell>
                <mxCell id="wp5Nh7wE5JxuKt0Tf9Hm-5" value="" style="whiteSpace=wrap;html=1;aspect=fixed;fontFamily=Fira Code;" parent="wp5Nh7wE5JxuKt0Tf9Hm-1" vertex="1">
                    <mxGeometry x="420" y="40" width="40" height="40" as="geometry"/>
                </mxCell>
                <mxCell id="wp5Nh7wE5JxuKt0Tf9Hm-6" value="20" style="whiteSpace=wrap;html=1;aspect=fixed;fontFamily=Fira Code;" parent="wp5Nh7wE5JxuKt0Tf9Hm-1" vertex="1">
                    <mxGeometry x="260" y="120" width="40" height="40" as="geometry"/>
                </mxCell>
                <mxCell id="wp5Nh7wE5JxuKt0Tf9Hm-7" value="30" style="whiteSpace=wrap;html=1;aspect=fixed;fontFamily=Fira Code;" parent="wp5Nh7wE5JxuKt0Tf9Hm-1" vertex="1">
                    <mxGeometry x="300" y="120" width="40" height="40" as="geometry"/>
                </mxCell>
                <mxCell id="wp5Nh7wE5JxuKt0Tf9Hm-8" value="40" style="whiteSpace=wrap;html=1;aspect=fixed;fontFamily=Fira Code;" parent="wp5Nh7wE5JxuKt0Tf9Hm-1" vertex="1">
                    <mxGeometry x="340" y="120" width="40" height="40" as="geometry"/>
                </mxCell>
                <mxCell id="wp5Nh7wE5JxuKt0Tf9Hm-9" value="5" style="whiteSpace=wrap;html=1;aspect=fixed;fontFamily=Fira Code;" parent="wp5Nh7wE5JxuKt0Tf9Hm-1" vertex="1">
                    <mxGeometry x="100" y="120" width="40" height="40" as="geometry"/>
                </mxCell>
                <mxCell id="wp5Nh7wE5JxuKt0Tf9Hm-10" value="" style="whiteSpace=wrap;html=1;aspect=fixed;fontFamily=Fira Code;" parent="wp5Nh7wE5JxuKt0Tf9Hm-1" vertex="1">
                    <mxGeometry x="140" y="120" width="40" height="40" as="geometry"/>
                </mxCell>
                <mxCell id="wp5Nh7wE5JxuKt0Tf9Hm-11" style="edgeStyle=none;rounded=0;orthogonalLoop=1;jettySize=auto;html=1;exitX=0.5;exitY=0;exitDx=0;exitDy=0;entryX=0;entryY=1;entryDx=0;entryDy=0;endArrow=none;endFill=0;fontFamily=Fira Code;" parent="wp5Nh7wE5JxuKt0Tf9Hm-1" source="wp5Nh7wE5JxuKt0Tf9Hm-10" target="wp5Nh7wE5JxuKt0Tf9Hm-2" edge="1">
                    <mxGeometry relative="1" as="geometry"/>
                </mxCell>
                <mxCell id="wp5Nh7wE5JxuKt0Tf9Hm-12" value="" style="whiteSpace=wrap;html=1;aspect=fixed;fontFamily=Fira Code;" parent="wp5Nh7wE5JxuKt0Tf9Hm-1" vertex="1">
                    <mxGeometry x="180" y="120" width="40" height="40" as="geometry"/>
                </mxCell>
            </root>
        </mxGraphModel>
    </diagram>
    <diagram name="Copy of Copy of Copy of Copy of Copy of Copy of Page-1" id="_is7TQpFMzh-ye-LpzSr">
        <mxGraphModel dx="1402" dy="860" grid="1" gridSize="10" guides="1" tooltips="1" connect="1" arrows="1" fold="1" page="1" pageScale="1" pageWidth="800" pageHeight="800" math="0" shadow="0">
            <root>
                <mxCell id="tJx9zgFaNB4yTbUbFEtk-0"/>
                <mxCell id="tJx9zgFaNB4yTbUbFEtk-1" parent="tJx9zgFaNB4yTbUbFEtk-0"/>
                <mxCell id="tJx9zgFaNB4yTbUbFEtk-2" value="10" style="whiteSpace=wrap;html=1;aspect=fixed;fontFamily=Fira Code;" parent="tJx9zgFaNB4yTbUbFEtk-1" vertex="1">
                    <mxGeometry x="340" y="40" width="40" height="40" as="geometry"/>
                </mxCell>
                <mxCell id="tJx9zgFaNB4yTbUbFEtk-3" style="edgeStyle=none;rounded=0;orthogonalLoop=1;jettySize=auto;html=1;exitX=0;exitY=1;exitDx=0;exitDy=0;entryX=0.5;entryY=0;entryDx=0;entryDy=0;endArrow=none;endFill=0;fontFamily=Fira Code;" parent="tJx9zgFaNB4yTbUbFEtk-1" source="tJx9zgFaNB4yTbUbFEtk-4" target="tJx9zgFaNB4yTbUbFEtk-7" edge="1">
                    <mxGeometry relative="1" as="geometry"/>
                </mxCell>
                <mxCell id="tJx9zgFaNB4yTbUbFEtk-4" value="30" style="whiteSpace=wrap;html=1;aspect=fixed;fontFamily=Fira Code;" parent="tJx9zgFaNB4yTbUbFEtk-1" vertex="1">
                    <mxGeometry x="380" y="40" width="40" height="40" as="geometry"/>
                </mxCell>
                <mxCell id="tJx9zgFaNB4yTbUbFEtk-5" value="" style="whiteSpace=wrap;html=1;aspect=fixed;fontFamily=Fira Code;" parent="tJx9zgFaNB4yTbUbFEtk-1" vertex="1">
                    <mxGeometry x="420" y="40" width="40" height="40" as="geometry"/>
                </mxCell>
                <mxCell id="tJx9zgFaNB4yTbUbFEtk-6" value="20" style="whiteSpace=wrap;html=1;aspect=fixed;fontFamily=Fira Code;" parent="tJx9zgFaNB4yTbUbFEtk-1" vertex="1">
                    <mxGeometry x="260" y="120" width="40" height="40" as="geometry"/>
                </mxCell>
                <mxCell id="tJx9zgFaNB4yTbUbFEtk-7" value="40" style="whiteSpace=wrap;html=1;aspect=fixed;fontFamily=Fira Code;" parent="tJx9zgFaNB4yTbUbFEtk-1" vertex="1">
                    <mxGeometry x="300" y="120" width="40" height="40" as="geometry"/>
                </mxCell>
                <mxCell id="tJx9zgFaNB4yTbUbFEtk-8" value="" style="whiteSpace=wrap;html=1;aspect=fixed;fontFamily=Fira Code;" parent="tJx9zgFaNB4yTbUbFEtk-1" vertex="1">
                    <mxGeometry x="340" y="120" width="40" height="40" as="geometry"/>
                </mxCell>
                <mxCell id="tJx9zgFaNB4yTbUbFEtk-9" value="5" style="whiteSpace=wrap;html=1;aspect=fixed;fontFamily=Fira Code;" parent="tJx9zgFaNB4yTbUbFEtk-1" vertex="1">
                    <mxGeometry x="100" y="120" width="40" height="40" as="geometry"/>
                </mxCell>
                <mxCell id="tJx9zgFaNB4yTbUbFEtk-10" value="" style="whiteSpace=wrap;html=1;aspect=fixed;fontFamily=Fira Code;" parent="tJx9zgFaNB4yTbUbFEtk-1" vertex="1">
                    <mxGeometry x="140" y="120" width="40" height="40" as="geometry"/>
                </mxCell>
                <mxCell id="tJx9zgFaNB4yTbUbFEtk-11" style="edgeStyle=none;rounded=0;orthogonalLoop=1;jettySize=auto;html=1;exitX=0.5;exitY=0;exitDx=0;exitDy=0;entryX=0;entryY=1;entryDx=0;entryDy=0;endArrow=none;endFill=0;fontFamily=Fira Code;" parent="tJx9zgFaNB4yTbUbFEtk-1" source="tJx9zgFaNB4yTbUbFEtk-10" target="tJx9zgFaNB4yTbUbFEtk-2" edge="1">
                    <mxGeometry relative="1" as="geometry"/>
                </mxCell>
                <mxCell id="tJx9zgFaNB4yTbUbFEtk-12" value="" style="whiteSpace=wrap;html=1;aspect=fixed;fontFamily=Fira Code;" parent="tJx9zgFaNB4yTbUbFEtk-1" vertex="1">
                    <mxGeometry x="180" y="120" width="40" height="40" as="geometry"/>
                </mxCell>
            </root>
        </mxGraphModel>
    </diagram>
    <diagram name="Copy of Copy of Copy of Copy of Copy of Copy of Copy of Page-1" id="zn22zaWIYfBQxuomTced">
        <mxGraphModel dx="1402" dy="860" grid="1" gridSize="10" guides="1" tooltips="1" connect="1" arrows="1" fold="1" page="1" pageScale="1" pageWidth="800" pageHeight="800" math="0" shadow="0">
            <root>
                <mxCell id="MvIKEU8aeDKV4k5l2mV6-0"/>
                <mxCell id="MvIKEU8aeDKV4k5l2mV6-1" parent="MvIKEU8aeDKV4k5l2mV6-0"/>
                <mxCell id="MvIKEU8aeDKV4k5l2mV6-2" value="10" style="whiteSpace=wrap;html=1;aspect=fixed;fontFamily=Fira Code;" parent="MvIKEU8aeDKV4k5l2mV6-1" vertex="1">
                    <mxGeometry x="340" y="40" width="40" height="40" as="geometry"/>
                </mxCell>
                <mxCell id="MvIKEU8aeDKV4k5l2mV6-3" style="edgeStyle=none;rounded=0;orthogonalLoop=1;jettySize=auto;html=1;exitX=0;exitY=1;exitDx=0;exitDy=0;entryX=0.5;entryY=0;entryDx=0;entryDy=0;endArrow=none;endFill=0;fontFamily=Fira Code;" parent="MvIKEU8aeDKV4k5l2mV6-1" source="MvIKEU8aeDKV4k5l2mV6-4" target="MvIKEU8aeDKV4k5l2mV6-7" edge="1">
                    <mxGeometry relative="1" as="geometry"/>
                </mxCell>
                <mxCell id="MvIKEU8aeDKV4k5l2mV6-4" value="30" style="whiteSpace=wrap;html=1;aspect=fixed;fontFamily=Fira Code;" parent="MvIKEU8aeDKV4k5l2mV6-1" vertex="1">
                    <mxGeometry x="380" y="40" width="40" height="40" as="geometry"/>
                </mxCell>
                <mxCell id="MvIKEU8aeDKV4k5l2mV6-16" style="rounded=0;orthogonalLoop=1;jettySize=auto;html=1;exitX=0;exitY=1;exitDx=0;exitDy=0;entryX=0.5;entryY=0;entryDx=0;entryDy=0;endArrow=none;endFill=0;" parent="MvIKEU8aeDKV4k5l2mV6-1" source="MvIKEU8aeDKV4k5l2mV6-5" target="MvIKEU8aeDKV4k5l2mV6-14" edge="1">
                    <mxGeometry relative="1" as="geometry"/>
                </mxCell>
                <mxCell id="MvIKEU8aeDKV4k5l2mV6-5" value="" style="whiteSpace=wrap;html=1;aspect=fixed;fontFamily=Fira Code;" parent="MvIKEU8aeDKV4k5l2mV6-1" vertex="1">
                    <mxGeometry x="420" y="40" width="40" height="40" as="geometry"/>
                </mxCell>
                <mxCell id="MvIKEU8aeDKV4k5l2mV6-6" value="20" style="whiteSpace=wrap;html=1;aspect=fixed;fontFamily=Fira Code;" parent="MvIKEU8aeDKV4k5l2mV6-1" vertex="1">
                    <mxGeometry x="260" y="120" width="40" height="40" as="geometry"/>
                </mxCell>
                <mxCell id="MvIKEU8aeDKV4k5l2mV6-7" value="40" style="whiteSpace=wrap;html=1;aspect=fixed;fontFamily=Fira Code;" parent="MvIKEU8aeDKV4k5l2mV6-1" vertex="1">
                    <mxGeometry x="300" y="120" width="40" height="40" as="geometry"/>
                </mxCell>
                <mxCell id="MvIKEU8aeDKV4k5l2mV6-8" value="" style="whiteSpace=wrap;html=1;aspect=fixed;fontFamily=Fira Code;" parent="MvIKEU8aeDKV4k5l2mV6-1" vertex="1">
                    <mxGeometry x="340" y="120" width="40" height="40" as="geometry"/>
                </mxCell>
                <mxCell id="MvIKEU8aeDKV4k5l2mV6-9" value="5" style="whiteSpace=wrap;html=1;aspect=fixed;fontFamily=Fira Code;" parent="MvIKEU8aeDKV4k5l2mV6-1" vertex="1">
                    <mxGeometry x="100" y="120" width="40" height="40" as="geometry"/>
                </mxCell>
                <mxCell id="MvIKEU8aeDKV4k5l2mV6-10" value="" style="whiteSpace=wrap;html=1;aspect=fixed;fontFamily=Fira Code;" parent="MvIKEU8aeDKV4k5l2mV6-1" vertex="1">
                    <mxGeometry x="140" y="120" width="40" height="40" as="geometry"/>
                </mxCell>
                <mxCell id="MvIKEU8aeDKV4k5l2mV6-11" style="edgeStyle=none;rounded=0;orthogonalLoop=1;jettySize=auto;html=1;exitX=0.5;exitY=0;exitDx=0;exitDy=0;entryX=0;entryY=1;entryDx=0;entryDy=0;endArrow=none;endFill=0;fontFamily=Fira Code;" parent="MvIKEU8aeDKV4k5l2mV6-1" source="MvIKEU8aeDKV4k5l2mV6-10" target="MvIKEU8aeDKV4k5l2mV6-2" edge="1">
                    <mxGeometry relative="1" as="geometry"/>
                </mxCell>
                <mxCell id="MvIKEU8aeDKV4k5l2mV6-12" value="" style="whiteSpace=wrap;html=1;aspect=fixed;fontFamily=Fira Code;" parent="MvIKEU8aeDKV4k5l2mV6-1" vertex="1">
                    <mxGeometry x="180" y="120" width="40" height="40" as="geometry"/>
                </mxCell>
                <mxCell id="MvIKEU8aeDKV4k5l2mV6-13" value="" style="whiteSpace=wrap;html=1;aspect=fixed;fontFamily=Fira Code;" parent="MvIKEU8aeDKV4k5l2mV6-1" vertex="1">
                    <mxGeometry x="420" y="120" width="40" height="40" as="geometry"/>
                </mxCell>
                <mxCell id="MvIKEU8aeDKV4k5l2mV6-14" value="" style="whiteSpace=wrap;html=1;aspect=fixed;fontFamily=Fira Code;" parent="MvIKEU8aeDKV4k5l2mV6-1" vertex="1">
                    <mxGeometry x="460" y="120" width="40" height="40" as="geometry"/>
                </mxCell>
                <mxCell id="MvIKEU8aeDKV4k5l2mV6-15" value="" style="whiteSpace=wrap;html=1;aspect=fixed;fontFamily=Fira Code;" parent="MvIKEU8aeDKV4k5l2mV6-1" vertex="1">
                    <mxGeometry x="500" y="120" width="40" height="40" as="geometry"/>
                </mxCell>
            </root>
        </mxGraphModel>
    </diagram>
    <diagram name="Copy of Copy of Copy of Copy of Copy of Copy of Copy of Copy of Page-1" id="8w6aOiACMDcH0ZQVsi6K">
        <mxGraphModel dx="1402" dy="860" grid="1" gridSize="10" guides="1" tooltips="1" connect="1" arrows="1" fold="1" page="1" pageScale="1" pageWidth="800" pageHeight="800" math="0" shadow="0">
            <root>
                <mxCell id="ES-o-gIMtxZ5Qo4sOy5T-0"/>
                <mxCell id="ES-o-gIMtxZ5Qo4sOy5T-1" parent="ES-o-gIMtxZ5Qo4sOy5T-0"/>
                <mxCell id="ES-o-gIMtxZ5Qo4sOy5T-2" value="10" style="whiteSpace=wrap;html=1;aspect=fixed;fontFamily=Fira Code;" parent="ES-o-gIMtxZ5Qo4sOy5T-1" vertex="1">
                    <mxGeometry x="340" y="40" width="40" height="40" as="geometry"/>
                </mxCell>
                <mxCell id="ES-o-gIMtxZ5Qo4sOy5T-3" style="edgeStyle=none;rounded=0;orthogonalLoop=1;jettySize=auto;html=1;exitX=0;exitY=1;exitDx=0;exitDy=0;entryX=0.5;entryY=0;entryDx=0;entryDy=0;endArrow=none;endFill=0;fontFamily=Fira Code;" parent="ES-o-gIMtxZ5Qo4sOy5T-1" source="ES-o-gIMtxZ5Qo4sOy5T-4" target="ES-o-gIMtxZ5Qo4sOy5T-8" edge="1">
                    <mxGeometry relative="1" as="geometry"/>
                </mxCell>
                <mxCell id="ES-o-gIMtxZ5Qo4sOy5T-4" value="30" style="whiteSpace=wrap;html=1;aspect=fixed;fontFamily=Fira Code;" parent="ES-o-gIMtxZ5Qo4sOy5T-1" vertex="1">
                    <mxGeometry x="380" y="40" width="40" height="40" as="geometry"/>
                </mxCell>
                <mxCell id="ES-o-gIMtxZ5Qo4sOy5T-5" style="rounded=0;orthogonalLoop=1;jettySize=auto;html=1;exitX=0;exitY=1;exitDx=0;exitDy=0;entryX=0.5;entryY=0;entryDx=0;entryDy=0;endArrow=none;endFill=0;" parent="ES-o-gIMtxZ5Qo4sOy5T-1" source="ES-o-gIMtxZ5Qo4sOy5T-6" target="ES-o-gIMtxZ5Qo4sOy5T-15" edge="1">
                    <mxGeometry relative="1" as="geometry"/>
                </mxCell>
                <mxCell id="ES-o-gIMtxZ5Qo4sOy5T-6" value="" style="whiteSpace=wrap;html=1;aspect=fixed;fontFamily=Fira Code;" parent="ES-o-gIMtxZ5Qo4sOy5T-1" vertex="1">
                    <mxGeometry x="420" y="40" width="40" height="40" as="geometry"/>
                </mxCell>
                <mxCell id="ES-o-gIMtxZ5Qo4sOy5T-7" value="20" style="whiteSpace=wrap;html=1;aspect=fixed;fontFamily=Fira Code;" parent="ES-o-gIMtxZ5Qo4sOy5T-1" vertex="1">
                    <mxGeometry x="260" y="120" width="40" height="40" as="geometry"/>
                </mxCell>
                <mxCell id="ES-o-gIMtxZ5Qo4sOy5T-8" value="" style="whiteSpace=wrap;html=1;aspect=fixed;fontFamily=Fira Code;" parent="ES-o-gIMtxZ5Qo4sOy5T-1" vertex="1">
                    <mxGeometry x="300" y="120" width="40" height="40" as="geometry"/>
                </mxCell>
                <mxCell id="ES-o-gIMtxZ5Qo4sOy5T-9" value="" style="whiteSpace=wrap;html=1;aspect=fixed;fontFamily=Fira Code;" parent="ES-o-gIMtxZ5Qo4sOy5T-1" vertex="1">
                    <mxGeometry x="340" y="120" width="40" height="40" as="geometry"/>
                </mxCell>
                <mxCell id="ES-o-gIMtxZ5Qo4sOy5T-10" value="5" style="whiteSpace=wrap;html=1;aspect=fixed;fontFamily=Fira Code;" parent="ES-o-gIMtxZ5Qo4sOy5T-1" vertex="1">
                    <mxGeometry x="100" y="120" width="40" height="40" as="geometry"/>
                </mxCell>
                <mxCell id="ES-o-gIMtxZ5Qo4sOy5T-11" value="" style="whiteSpace=wrap;html=1;aspect=fixed;fontFamily=Fira Code;" parent="ES-o-gIMtxZ5Qo4sOy5T-1" vertex="1">
                    <mxGeometry x="140" y="120" width="40" height="40" as="geometry"/>
                </mxCell>
                <mxCell id="ES-o-gIMtxZ5Qo4sOy5T-12" style="edgeStyle=none;rounded=0;orthogonalLoop=1;jettySize=auto;html=1;exitX=0.5;exitY=0;exitDx=0;exitDy=0;entryX=0;entryY=1;entryDx=0;entryDy=0;endArrow=none;endFill=0;fontFamily=Fira Code;" parent="ES-o-gIMtxZ5Qo4sOy5T-1" source="ES-o-gIMtxZ5Qo4sOy5T-11" target="ES-o-gIMtxZ5Qo4sOy5T-2" edge="1">
                    <mxGeometry relative="1" as="geometry"/>
                </mxCell>
                <mxCell id="ES-o-gIMtxZ5Qo4sOy5T-13" value="" style="whiteSpace=wrap;html=1;aspect=fixed;fontFamily=Fira Code;" parent="ES-o-gIMtxZ5Qo4sOy5T-1" vertex="1">
                    <mxGeometry x="180" y="120" width="40" height="40" as="geometry"/>
                </mxCell>
                <mxCell id="ES-o-gIMtxZ5Qo4sOy5T-14" value="40" style="whiteSpace=wrap;html=1;aspect=fixed;fontFamily=Fira Code;" parent="ES-o-gIMtxZ5Qo4sOy5T-1" vertex="1">
                    <mxGeometry x="420" y="120" width="40" height="40" as="geometry"/>
                </mxCell>
                <mxCell id="ES-o-gIMtxZ5Qo4sOy5T-15" value="" style="whiteSpace=wrap;html=1;aspect=fixed;fontFamily=Fira Code;" parent="ES-o-gIMtxZ5Qo4sOy5T-1" vertex="1">
                    <mxGeometry x="460" y="120" width="40" height="40" as="geometry"/>
                </mxCell>
                <mxCell id="ES-o-gIMtxZ5Qo4sOy5T-16" value="" style="whiteSpace=wrap;html=1;aspect=fixed;fontFamily=Fira Code;" parent="ES-o-gIMtxZ5Qo4sOy5T-1" vertex="1">
                    <mxGeometry x="500" y="120" width="40" height="40" as="geometry"/>
                </mxCell>
            </root>
        </mxGraphModel>
    </diagram>
    <diagram name="Copy of Copy of Copy of Copy of Copy of Copy of Copy of Copy of Copy of Page-1" id="GL5PlWWTHZrjinRl08zE">
        <mxGraphModel dx="1402" dy="860" grid="1" gridSize="10" guides="1" tooltips="1" connect="1" arrows="1" fold="1" page="1" pageScale="1" pageWidth="800" pageHeight="800" math="0" shadow="0">
            <root>
                <mxCell id="B4b0ldogBz_o11U6JQ5b-0"/>
                <mxCell id="B4b0ldogBz_o11U6JQ5b-1" parent="B4b0ldogBz_o11U6JQ5b-0"/>
                <mxCell id="B4b0ldogBz_o11U6JQ5b-2" value="10" style="whiteSpace=wrap;html=1;aspect=fixed;fontFamily=Fira Code;" parent="B4b0ldogBz_o11U6JQ5b-1" vertex="1">
                    <mxGeometry x="340" y="40" width="40" height="40" as="geometry"/>
                </mxCell>
                <mxCell id="B4b0ldogBz_o11U6JQ5b-3" style="edgeStyle=none;rounded=0;orthogonalLoop=1;jettySize=auto;html=1;exitX=0;exitY=1;exitDx=0;exitDy=0;entryX=0.5;entryY=0;entryDx=0;entryDy=0;endArrow=none;endFill=0;fontFamily=Fira Code;" parent="B4b0ldogBz_o11U6JQ5b-1" source="B4b0ldogBz_o11U6JQ5b-4" target="B4b0ldogBz_o11U6JQ5b-8" edge="1">
                    <mxGeometry relative="1" as="geometry"/>
                </mxCell>
                <mxCell id="B4b0ldogBz_o11U6JQ5b-4" value="30" style="whiteSpace=wrap;html=1;aspect=fixed;fontFamily=Fira Code;" parent="B4b0ldogBz_o11U6JQ5b-1" vertex="1">
                    <mxGeometry x="380" y="40" width="40" height="40" as="geometry"/>
                </mxCell>
                <mxCell id="B4b0ldogBz_o11U6JQ5b-5" style="rounded=0;orthogonalLoop=1;jettySize=auto;html=1;exitX=0;exitY=1;exitDx=0;exitDy=0;entryX=0.5;entryY=0;entryDx=0;entryDy=0;endArrow=none;endFill=0;" parent="B4b0ldogBz_o11U6JQ5b-1" source="B4b0ldogBz_o11U6JQ5b-6" target="B4b0ldogBz_o11U6JQ5b-15" edge="1">
                    <mxGeometry relative="1" as="geometry"/>
                </mxCell>
                <mxCell id="B4b0ldogBz_o11U6JQ5b-6" value="" style="whiteSpace=wrap;html=1;aspect=fixed;fontFamily=Fira Code;" parent="B4b0ldogBz_o11U6JQ5b-1" vertex="1">
                    <mxGeometry x="420" y="40" width="40" height="40" as="geometry"/>
                </mxCell>
                <mxCell id="B4b0ldogBz_o11U6JQ5b-7" value="20" style="whiteSpace=wrap;html=1;aspect=fixed;fontFamily=Fira Code;" parent="B4b0ldogBz_o11U6JQ5b-1" vertex="1">
                    <mxGeometry x="260" y="120" width="40" height="40" as="geometry"/>
                </mxCell>
                <mxCell id="B4b0ldogBz_o11U6JQ5b-8" value="" style="whiteSpace=wrap;html=1;aspect=fixed;fontFamily=Fira Code;" parent="B4b0ldogBz_o11U6JQ5b-1" vertex="1">
                    <mxGeometry x="300" y="120" width="40" height="40" as="geometry"/>
                </mxCell>
                <mxCell id="B4b0ldogBz_o11U6JQ5b-9" value="" style="whiteSpace=wrap;html=1;aspect=fixed;fontFamily=Fira Code;" parent="B4b0ldogBz_o11U6JQ5b-1" vertex="1">
                    <mxGeometry x="340" y="120" width="40" height="40" as="geometry"/>
                </mxCell>
                <mxCell id="B4b0ldogBz_o11U6JQ5b-10" value="5" style="whiteSpace=wrap;html=1;aspect=fixed;fontFamily=Fira Code;" parent="B4b0ldogBz_o11U6JQ5b-1" vertex="1">
                    <mxGeometry x="100" y="120" width="40" height="40" as="geometry"/>
                </mxCell>
                <mxCell id="B4b0ldogBz_o11U6JQ5b-11" value="" style="whiteSpace=wrap;html=1;aspect=fixed;fontFamily=Fira Code;" parent="B4b0ldogBz_o11U6JQ5b-1" vertex="1">
                    <mxGeometry x="140" y="120" width="40" height="40" as="geometry"/>
                </mxCell>
                <mxCell id="B4b0ldogBz_o11U6JQ5b-12" style="edgeStyle=none;rounded=0;orthogonalLoop=1;jettySize=auto;html=1;exitX=0.5;exitY=0;exitDx=0;exitDy=0;entryX=0;entryY=1;entryDx=0;entryDy=0;endArrow=none;endFill=0;fontFamily=Fira Code;" parent="B4b0ldogBz_o11U6JQ5b-1" source="B4b0ldogBz_o11U6JQ5b-11" target="B4b0ldogBz_o11U6JQ5b-2" edge="1">
                    <mxGeometry relative="1" as="geometry"/>
                </mxCell>
                <mxCell id="B4b0ldogBz_o11U6JQ5b-13" value="" style="whiteSpace=wrap;html=1;aspect=fixed;fontFamily=Fira Code;" parent="B4b0ldogBz_o11U6JQ5b-1" vertex="1">
                    <mxGeometry x="180" y="120" width="40" height="40" as="geometry"/>
                </mxCell>
                <mxCell id="B4b0ldogBz_o11U6JQ5b-14" value="40" style="whiteSpace=wrap;html=1;aspect=fixed;fontFamily=Fira Code;" parent="B4b0ldogBz_o11U6JQ5b-1" vertex="1">
                    <mxGeometry x="420" y="120" width="40" height="40" as="geometry"/>
                </mxCell>
                <mxCell id="B4b0ldogBz_o11U6JQ5b-15" value="50" style="whiteSpace=wrap;html=1;aspect=fixed;fontFamily=Fira Code;" parent="B4b0ldogBz_o11U6JQ5b-1" vertex="1">
                    <mxGeometry x="460" y="120" width="40" height="40" as="geometry"/>
                </mxCell>
                <mxCell id="B4b0ldogBz_o11U6JQ5b-16" value="" style="whiteSpace=wrap;html=1;aspect=fixed;fontFamily=Fira Code;" parent="B4b0ldogBz_o11U6JQ5b-1" vertex="1">
                    <mxGeometry x="500" y="120" width="40" height="40" as="geometry"/>
                </mxCell>
            </root>
        </mxGraphModel>
    </diagram>
    <diagram name="Copy of Copy of Copy of Copy of Copy of Copy of Copy of Copy of Copy of Copy of Page-1" id="3MZMwWhEJAFoecG1PG5-">
        <mxGraphModel dx="1402" dy="860" grid="1" gridSize="10" guides="1" tooltips="1" connect="1" arrows="1" fold="1" page="1" pageScale="1" pageWidth="800" pageHeight="800" math="0" shadow="0">
            <root>
                <mxCell id="1m2yoN8QrdsAiEmVwS55-0"/>
                <mxCell id="1m2yoN8QrdsAiEmVwS55-1" parent="1m2yoN8QrdsAiEmVwS55-0"/>
                <mxCell id="1m2yoN8QrdsAiEmVwS55-2" value="10" style="whiteSpace=wrap;html=1;aspect=fixed;fontFamily=Fira Code;" parent="1m2yoN8QrdsAiEmVwS55-1" vertex="1">
                    <mxGeometry x="340" y="40" width="40" height="40" as="geometry"/>
                </mxCell>
                <mxCell id="1m2yoN8QrdsAiEmVwS55-3" style="edgeStyle=none;rounded=0;orthogonalLoop=1;jettySize=auto;html=1;exitX=0;exitY=1;exitDx=0;exitDy=0;entryX=0.5;entryY=0;entryDx=0;entryDy=0;endArrow=none;endFill=0;fontFamily=Fira Code;" parent="1m2yoN8QrdsAiEmVwS55-1" source="1m2yoN8QrdsAiEmVwS55-4" target="1m2yoN8QrdsAiEmVwS55-8" edge="1">
                    <mxGeometry relative="1" as="geometry"/>
                </mxCell>
                <mxCell id="1m2yoN8QrdsAiEmVwS55-4" value="30" style="whiteSpace=wrap;html=1;aspect=fixed;fontFamily=Fira Code;" parent="1m2yoN8QrdsAiEmVwS55-1" vertex="1">
                    <mxGeometry x="380" y="40" width="40" height="40" as="geometry"/>
                </mxCell>
                <mxCell id="1m2yoN8QrdsAiEmVwS55-5" style="rounded=0;orthogonalLoop=1;jettySize=auto;html=1;exitX=0;exitY=1;exitDx=0;exitDy=0;entryX=0.5;entryY=0;entryDx=0;entryDy=0;endArrow=none;endFill=0;" parent="1m2yoN8QrdsAiEmVwS55-1" source="1m2yoN8QrdsAiEmVwS55-6" target="1m2yoN8QrdsAiEmVwS55-15" edge="1">
                    <mxGeometry relative="1" as="geometry"/>
                </mxCell>
                <mxCell id="1m2yoN8QrdsAiEmVwS55-6" value="" style="whiteSpace=wrap;html=1;aspect=fixed;fontFamily=Fira Code;" parent="1m2yoN8QrdsAiEmVwS55-1" vertex="1">
                    <mxGeometry x="420" y="40" width="40" height="40" as="geometry"/>
                </mxCell>
                <mxCell id="1m2yoN8QrdsAiEmVwS55-7" value="20" style="whiteSpace=wrap;html=1;aspect=fixed;fontFamily=Fira Code;" parent="1m2yoN8QrdsAiEmVwS55-1" vertex="1">
                    <mxGeometry x="260" y="120" width="40" height="40" as="geometry"/>
                </mxCell>
                <mxCell id="1m2yoN8QrdsAiEmVwS55-8" value="" style="whiteSpace=wrap;html=1;aspect=fixed;fontFamily=Fira Code;" parent="1m2yoN8QrdsAiEmVwS55-1" vertex="1">
                    <mxGeometry x="300" y="120" width="40" height="40" as="geometry"/>
                </mxCell>
                <mxCell id="1m2yoN8QrdsAiEmVwS55-9" value="" style="whiteSpace=wrap;html=1;aspect=fixed;fontFamily=Fira Code;" parent="1m2yoN8QrdsAiEmVwS55-1" vertex="1">
                    <mxGeometry x="340" y="120" width="40" height="40" as="geometry"/>
                </mxCell>
                <mxCell id="1m2yoN8QrdsAiEmVwS55-10" value="5" style="whiteSpace=wrap;html=1;aspect=fixed;fontFamily=Fira Code;" parent="1m2yoN8QrdsAiEmVwS55-1" vertex="1">
                    <mxGeometry x="100" y="120" width="40" height="40" as="geometry"/>
                </mxCell>
                <mxCell id="1m2yoN8QrdsAiEmVwS55-11" value="" style="whiteSpace=wrap;html=1;aspect=fixed;fontFamily=Fira Code;" parent="1m2yoN8QrdsAiEmVwS55-1" vertex="1">
                    <mxGeometry x="140" y="120" width="40" height="40" as="geometry"/>
                </mxCell>
                <mxCell id="1m2yoN8QrdsAiEmVwS55-12" style="edgeStyle=none;rounded=0;orthogonalLoop=1;jettySize=auto;html=1;exitX=0.5;exitY=0;exitDx=0;exitDy=0;entryX=0;entryY=1;entryDx=0;entryDy=0;endArrow=none;endFill=0;fontFamily=Fira Code;" parent="1m2yoN8QrdsAiEmVwS55-1" source="1m2yoN8QrdsAiEmVwS55-11" target="1m2yoN8QrdsAiEmVwS55-2" edge="1">
                    <mxGeometry relative="1" as="geometry"/>
                </mxCell>
                <mxCell id="1m2yoN8QrdsAiEmVwS55-13" value="" style="whiteSpace=wrap;html=1;aspect=fixed;fontFamily=Fira Code;" parent="1m2yoN8QrdsAiEmVwS55-1" vertex="1">
                    <mxGeometry x="180" y="120" width="40" height="40" as="geometry"/>
                </mxCell>
                <mxCell id="1m2yoN8QrdsAiEmVwS55-14" value="40" style="whiteSpace=wrap;html=1;aspect=fixed;fontFamily=Fira Code;" parent="1m2yoN8QrdsAiEmVwS55-1" vertex="1">
                    <mxGeometry x="420" y="120" width="40" height="40" as="geometry"/>
                </mxCell>
                <mxCell id="1m2yoN8QrdsAiEmVwS55-15" value="50" style="whiteSpace=wrap;html=1;aspect=fixed;fontFamily=Fira Code;" parent="1m2yoN8QrdsAiEmVwS55-1" vertex="1">
                    <mxGeometry x="460" y="120" width="40" height="40" as="geometry"/>
                </mxCell>
                <mxCell id="1m2yoN8QrdsAiEmVwS55-16" value="60" style="whiteSpace=wrap;html=1;aspect=fixed;fontFamily=Fira Code;" parent="1m2yoN8QrdsAiEmVwS55-1" vertex="1">
                    <mxGeometry x="500" y="120" width="40" height="40" as="geometry"/>
                </mxCell>
            </root>
        </mxGraphModel>
    </diagram>
    <diagram name="Copy of Copy of Copy of Copy of Copy of Copy of Copy of Copy of Copy of Copy of Copy of Page-1" id="PYjqot6eD6ugcA9fbN-D">
        <mxGraphModel dx="1402" dy="860" grid="1" gridSize="10" guides="1" tooltips="1" connect="1" arrows="1" fold="1" page="1" pageScale="1" pageWidth="800" pageHeight="800" math="0" shadow="0">
            <root>
                <mxCell id="nj8vPv9i2MtrATJPodpw-0"/>
                <mxCell id="nj8vPv9i2MtrATJPodpw-1" parent="nj8vPv9i2MtrATJPodpw-0"/>
                <mxCell id="nj8vPv9i2MtrATJPodpw-2" value="10" style="whiteSpace=wrap;html=1;aspect=fixed;fontFamily=Fira Code;" parent="nj8vPv9i2MtrATJPodpw-1" vertex="1">
                    <mxGeometry x="340" y="40" width="40" height="40" as="geometry"/>
                </mxCell>
                <mxCell id="nj8vPv9i2MtrATJPodpw-3" style="edgeStyle=none;rounded=0;orthogonalLoop=1;jettySize=auto;html=1;exitX=0;exitY=1;exitDx=0;exitDy=0;entryX=0.5;entryY=0;entryDx=0;entryDy=0;endArrow=none;endFill=0;fontFamily=Fira Code;" parent="nj8vPv9i2MtrATJPodpw-1" source="nj8vPv9i2MtrATJPodpw-4" target="nj8vPv9i2MtrATJPodpw-8" edge="1">
                    <mxGeometry relative="1" as="geometry"/>
                </mxCell>
                <mxCell id="nj8vPv9i2MtrATJPodpw-4" value="30" style="whiteSpace=wrap;html=1;aspect=fixed;fontFamily=Fira Code;" parent="nj8vPv9i2MtrATJPodpw-1" vertex="1">
                    <mxGeometry x="380" y="40" width="40" height="40" as="geometry"/>
                </mxCell>
                <mxCell id="nj8vPv9i2MtrATJPodpw-5" style="rounded=0;orthogonalLoop=1;jettySize=auto;html=1;exitX=0;exitY=1;exitDx=0;exitDy=0;entryX=0.5;entryY=0;entryDx=0;entryDy=0;endArrow=none;endFill=0;" parent="nj8vPv9i2MtrATJPodpw-1" source="nj8vPv9i2MtrATJPodpw-6" target="nj8vPv9i2MtrATJPodpw-15" edge="1">
                    <mxGeometry relative="1" as="geometry"/>
                </mxCell>
                <mxCell id="nj8vPv9i2MtrATJPodpw-6" value="50" style="whiteSpace=wrap;html=1;aspect=fixed;fontFamily=Fira Code;" parent="nj8vPv9i2MtrATJPodpw-1" vertex="1">
                    <mxGeometry x="420" y="40" width="40" height="40" as="geometry"/>
                </mxCell>
                <mxCell id="nj8vPv9i2MtrATJPodpw-7" value="20" style="whiteSpace=wrap;html=1;aspect=fixed;fontFamily=Fira Code;" parent="nj8vPv9i2MtrATJPodpw-1" vertex="1">
                    <mxGeometry x="260" y="120" width="40" height="40" as="geometry"/>
                </mxCell>
                <mxCell id="nj8vPv9i2MtrATJPodpw-8" value="" style="whiteSpace=wrap;html=1;aspect=fixed;fontFamily=Fira Code;" parent="nj8vPv9i2MtrATJPodpw-1" vertex="1">
                    <mxGeometry x="300" y="120" width="40" height="40" as="geometry"/>
                </mxCell>
                <mxCell id="nj8vPv9i2MtrATJPodpw-9" value="" style="whiteSpace=wrap;html=1;aspect=fixed;fontFamily=Fira Code;" parent="nj8vPv9i2MtrATJPodpw-1" vertex="1">
                    <mxGeometry x="340" y="120" width="40" height="40" as="geometry"/>
                </mxCell>
                <mxCell id="nj8vPv9i2MtrATJPodpw-10" value="5" style="whiteSpace=wrap;html=1;aspect=fixed;fontFamily=Fira Code;" parent="nj8vPv9i2MtrATJPodpw-1" vertex="1">
                    <mxGeometry x="100" y="120" width="40" height="40" as="geometry"/>
                </mxCell>
                <mxCell id="nj8vPv9i2MtrATJPodpw-11" value="" style="whiteSpace=wrap;html=1;aspect=fixed;fontFamily=Fira Code;" parent="nj8vPv9i2MtrATJPodpw-1" vertex="1">
                    <mxGeometry x="140" y="120" width="40" height="40" as="geometry"/>
                </mxCell>
                <mxCell id="nj8vPv9i2MtrATJPodpw-12" style="edgeStyle=none;rounded=0;orthogonalLoop=1;jettySize=auto;html=1;exitX=0.5;exitY=0;exitDx=0;exitDy=0;entryX=0;entryY=1;entryDx=0;entryDy=0;endArrow=none;endFill=0;fontFamily=Fira Code;" parent="nj8vPv9i2MtrATJPodpw-1" source="nj8vPv9i2MtrATJPodpw-11" target="nj8vPv9i2MtrATJPodpw-2" edge="1">
                    <mxGeometry relative="1" as="geometry"/>
                </mxCell>
                <mxCell id="nj8vPv9i2MtrATJPodpw-13" value="" style="whiteSpace=wrap;html=1;aspect=fixed;fontFamily=Fira Code;" parent="nj8vPv9i2MtrATJPodpw-1" vertex="1">
                    <mxGeometry x="180" y="120" width="40" height="40" as="geometry"/>
                </mxCell>
                <mxCell id="nj8vPv9i2MtrATJPodpw-14" value="40" style="whiteSpace=wrap;html=1;aspect=fixed;fontFamily=Fira Code;" parent="nj8vPv9i2MtrATJPodpw-1" vertex="1">
                    <mxGeometry x="420" y="120" width="40" height="40" as="geometry"/>
                </mxCell>
                <mxCell id="nj8vPv9i2MtrATJPodpw-15" value="60" style="whiteSpace=wrap;html=1;aspect=fixed;fontFamily=Fira Code;" parent="nj8vPv9i2MtrATJPodpw-1" vertex="1">
                    <mxGeometry x="460" y="120" width="40" height="40" as="geometry"/>
                </mxCell>
                <mxCell id="nj8vPv9i2MtrATJPodpw-16" value="" style="whiteSpace=wrap;html=1;aspect=fixed;fontFamily=Fira Code;" parent="nj8vPv9i2MtrATJPodpw-1" vertex="1">
                    <mxGeometry x="500" y="120" width="40" height="40" as="geometry"/>
                </mxCell>
            </root>
        </mxGraphModel>
    </diagram>
    <diagram name="Copy of Copy of Copy of Copy of Copy of Copy of Copy of Copy of Copy of Copy of Copy of Copy of Page-1" id="I8GSzm7XV4uOwWbYTmd9">
        <mxGraphModel dx="1402" dy="860" grid="1" gridSize="10" guides="1" tooltips="1" connect="1" arrows="1" fold="1" page="1" pageScale="1" pageWidth="800" pageHeight="800" math="0" shadow="0">
            <root>
                <mxCell id="kqRfvcJ0z7TSGE3wluRv-0"/>
                <mxCell id="kqRfvcJ0z7TSGE3wluRv-1" parent="kqRfvcJ0z7TSGE3wluRv-0"/>
                <mxCell id="kqRfvcJ0z7TSGE3wluRv-2" value="10" style="whiteSpace=wrap;html=1;aspect=fixed;fontFamily=Fira Code;" parent="kqRfvcJ0z7TSGE3wluRv-1" vertex="1">
                    <mxGeometry x="340" y="40" width="40" height="40" as="geometry"/>
                </mxCell>
                <mxCell id="kqRfvcJ0z7TSGE3wluRv-3" style="edgeStyle=none;rounded=0;orthogonalLoop=1;jettySize=auto;html=1;exitX=0;exitY=1;exitDx=0;exitDy=0;entryX=0.5;entryY=0;entryDx=0;entryDy=0;endArrow=none;endFill=0;fontFamily=Fira Code;" parent="kqRfvcJ0z7TSGE3wluRv-1" source="kqRfvcJ0z7TSGE3wluRv-4" target="kqRfvcJ0z7TSGE3wluRv-8" edge="1">
                    <mxGeometry relative="1" as="geometry"/>
                </mxCell>
                <mxCell id="kqRfvcJ0z7TSGE3wluRv-4" value="30" style="whiteSpace=wrap;html=1;aspect=fixed;fontFamily=Fira Code;" parent="kqRfvcJ0z7TSGE3wluRv-1" vertex="1">
                    <mxGeometry x="380" y="40" width="40" height="40" as="geometry"/>
                </mxCell>
                <mxCell id="kqRfvcJ0z7TSGE3wluRv-5" style="rounded=0;orthogonalLoop=1;jettySize=auto;html=1;exitX=0;exitY=1;exitDx=0;exitDy=0;entryX=0.5;entryY=0;entryDx=0;entryDy=0;endArrow=none;endFill=0;" parent="kqRfvcJ0z7TSGE3wluRv-1" source="kqRfvcJ0z7TSGE3wluRv-6" target="kqRfvcJ0z7TSGE3wluRv-15" edge="1">
                    <mxGeometry relative="1" as="geometry"/>
                </mxCell>
                <mxCell id="kqRfvcJ0z7TSGE3wluRv-20" style="edgeStyle=none;rounded=0;orthogonalLoop=1;jettySize=auto;html=1;exitX=1;exitY=1;exitDx=0;exitDy=0;entryX=0.5;entryY=0;entryDx=0;entryDy=0;endArrow=none;endFill=0;" parent="kqRfvcJ0z7TSGE3wluRv-1" source="kqRfvcJ0z7TSGE3wluRv-6" target="kqRfvcJ0z7TSGE3wluRv-18" edge="1">
                    <mxGeometry relative="1" as="geometry"/>
                </mxCell>
                <mxCell id="kqRfvcJ0z7TSGE3wluRv-6" value="50" style="whiteSpace=wrap;html=1;aspect=fixed;fontFamily=Fira Code;" parent="kqRfvcJ0z7TSGE3wluRv-1" vertex="1">
                    <mxGeometry x="420" y="40" width="40" height="40" as="geometry"/>
                </mxCell>
                <mxCell id="kqRfvcJ0z7TSGE3wluRv-7" value="20" style="whiteSpace=wrap;html=1;aspect=fixed;fontFamily=Fira Code;" parent="kqRfvcJ0z7TSGE3wluRv-1" vertex="1">
                    <mxGeometry x="260" y="120" width="40" height="40" as="geometry"/>
                </mxCell>
                <mxCell id="kqRfvcJ0z7TSGE3wluRv-8" value="" style="whiteSpace=wrap;html=1;aspect=fixed;fontFamily=Fira Code;" parent="kqRfvcJ0z7TSGE3wluRv-1" vertex="1">
                    <mxGeometry x="300" y="120" width="40" height="40" as="geometry"/>
                </mxCell>
                <mxCell id="kqRfvcJ0z7TSGE3wluRv-9" value="" style="whiteSpace=wrap;html=1;aspect=fixed;fontFamily=Fira Code;" parent="kqRfvcJ0z7TSGE3wluRv-1" vertex="1">
                    <mxGeometry x="340" y="120" width="40" height="40" as="geometry"/>
                </mxCell>
                <mxCell id="kqRfvcJ0z7TSGE3wluRv-10" value="5" style="whiteSpace=wrap;html=1;aspect=fixed;fontFamily=Fira Code;" parent="kqRfvcJ0z7TSGE3wluRv-1" vertex="1">
                    <mxGeometry x="100" y="120" width="40" height="40" as="geometry"/>
                </mxCell>
                <mxCell id="kqRfvcJ0z7TSGE3wluRv-11" value="" style="whiteSpace=wrap;html=1;aspect=fixed;fontFamily=Fira Code;" parent="kqRfvcJ0z7TSGE3wluRv-1" vertex="1">
                    <mxGeometry x="140" y="120" width="40" height="40" as="geometry"/>
                </mxCell>
                <mxCell id="kqRfvcJ0z7TSGE3wluRv-12" style="edgeStyle=none;rounded=0;orthogonalLoop=1;jettySize=auto;html=1;exitX=0.5;exitY=0;exitDx=0;exitDy=0;entryX=0;entryY=1;entryDx=0;entryDy=0;endArrow=none;endFill=0;fontFamily=Fira Code;" parent="kqRfvcJ0z7TSGE3wluRv-1" source="kqRfvcJ0z7TSGE3wluRv-11" target="kqRfvcJ0z7TSGE3wluRv-2" edge="1">
                    <mxGeometry relative="1" as="geometry"/>
                </mxCell>
                <mxCell id="kqRfvcJ0z7TSGE3wluRv-13" value="" style="whiteSpace=wrap;html=1;aspect=fixed;fontFamily=Fira Code;" parent="kqRfvcJ0z7TSGE3wluRv-1" vertex="1">
                    <mxGeometry x="180" y="120" width="40" height="40" as="geometry"/>
                </mxCell>
                <mxCell id="kqRfvcJ0z7TSGE3wluRv-14" value="40" style="whiteSpace=wrap;html=1;aspect=fixed;fontFamily=Fira Code;" parent="kqRfvcJ0z7TSGE3wluRv-1" vertex="1">
                    <mxGeometry x="420" y="120" width="40" height="40" as="geometry"/>
                </mxCell>
                <mxCell id="kqRfvcJ0z7TSGE3wluRv-15" value="60" style="whiteSpace=wrap;html=1;aspect=fixed;fontFamily=Fira Code;" parent="kqRfvcJ0z7TSGE3wluRv-1" vertex="1">
                    <mxGeometry x="460" y="120" width="40" height="40" as="geometry"/>
                </mxCell>
                <mxCell id="kqRfvcJ0z7TSGE3wluRv-16" value="" style="whiteSpace=wrap;html=1;aspect=fixed;fontFamily=Fira Code;" parent="kqRfvcJ0z7TSGE3wluRv-1" vertex="1">
                    <mxGeometry x="500" y="120" width="40" height="40" as="geometry"/>
                </mxCell>
                <mxCell id="kqRfvcJ0z7TSGE3wluRv-17" value="" style="whiteSpace=wrap;html=1;aspect=fixed;fontFamily=Fira Code;" parent="kqRfvcJ0z7TSGE3wluRv-1" vertex="1">
                    <mxGeometry x="580" y="120" width="40" height="40" as="geometry"/>
                </mxCell>
                <mxCell id="kqRfvcJ0z7TSGE3wluRv-18" value="" style="whiteSpace=wrap;html=1;aspect=fixed;fontFamily=Fira Code;" parent="kqRfvcJ0z7TSGE3wluRv-1" vertex="1">
                    <mxGeometry x="620" y="120" width="40" height="40" as="geometry"/>
                </mxCell>
                <mxCell id="kqRfvcJ0z7TSGE3wluRv-19" value="" style="whiteSpace=wrap;html=1;aspect=fixed;fontFamily=Fira Code;" parent="kqRfvcJ0z7TSGE3wluRv-1" vertex="1">
                    <mxGeometry x="660" y="120" width="40" height="40" as="geometry"/>
                </mxCell>
            </root>
        </mxGraphModel>
    </diagram>
    <diagram name="Copy of Copy of Copy of Copy of Copy of Copy of Copy of Copy of Copy of Copy of Copy of Copy of Copy of Page-1" id="B46WKjnweSC1cmVZGGbX">
        <mxGraphModel dx="1402" dy="860" grid="1" gridSize="10" guides="1" tooltips="1" connect="1" arrows="1" fold="1" page="1" pageScale="1" pageWidth="800" pageHeight="800" math="0" shadow="0">
            <root>
                <mxCell id="ChKWI3Nj7KgILJeCTmAm-0"/>
                <mxCell id="ChKWI3Nj7KgILJeCTmAm-1" parent="ChKWI3Nj7KgILJeCTmAm-0"/>
                <mxCell id="ChKWI3Nj7KgILJeCTmAm-2" value="10" style="whiteSpace=wrap;html=1;aspect=fixed;fontFamily=Fira Code;" parent="ChKWI3Nj7KgILJeCTmAm-1" vertex="1">
                    <mxGeometry x="340" y="40" width="40" height="40" as="geometry"/>
                </mxCell>
                <mxCell id="ChKWI3Nj7KgILJeCTmAm-3" style="edgeStyle=none;rounded=0;orthogonalLoop=1;jettySize=auto;html=1;exitX=0;exitY=1;exitDx=0;exitDy=0;entryX=0.5;entryY=0;entryDx=0;entryDy=0;endArrow=none;endFill=0;fontFamily=Fira Code;" parent="ChKWI3Nj7KgILJeCTmAm-1" source="ChKWI3Nj7KgILJeCTmAm-4" target="ChKWI3Nj7KgILJeCTmAm-9" edge="1">
                    <mxGeometry relative="1" as="geometry"/>
                </mxCell>
                <mxCell id="ChKWI3Nj7KgILJeCTmAm-4" value="30" style="whiteSpace=wrap;html=1;aspect=fixed;fontFamily=Fira Code;" parent="ChKWI3Nj7KgILJeCTmAm-1" vertex="1">
                    <mxGeometry x="380" y="40" width="40" height="40" as="geometry"/>
                </mxCell>
                <mxCell id="ChKWI3Nj7KgILJeCTmAm-5" style="rounded=0;orthogonalLoop=1;jettySize=auto;html=1;exitX=0;exitY=1;exitDx=0;exitDy=0;entryX=0.5;entryY=0;entryDx=0;entryDy=0;endArrow=none;endFill=0;" parent="ChKWI3Nj7KgILJeCTmAm-1" source="ChKWI3Nj7KgILJeCTmAm-7" target="ChKWI3Nj7KgILJeCTmAm-16" edge="1">
                    <mxGeometry relative="1" as="geometry"/>
                </mxCell>
                <mxCell id="ChKWI3Nj7KgILJeCTmAm-6" style="edgeStyle=none;rounded=0;orthogonalLoop=1;jettySize=auto;html=1;exitX=1;exitY=1;exitDx=0;exitDy=0;entryX=0.5;entryY=0;entryDx=0;entryDy=0;endArrow=none;endFill=0;" parent="ChKWI3Nj7KgILJeCTmAm-1" source="ChKWI3Nj7KgILJeCTmAm-7" target="ChKWI3Nj7KgILJeCTmAm-19" edge="1">
                    <mxGeometry relative="1" as="geometry"/>
                </mxCell>
                <mxCell id="ChKWI3Nj7KgILJeCTmAm-7" value="50" style="whiteSpace=wrap;html=1;aspect=fixed;fontFamily=Fira Code;" parent="ChKWI3Nj7KgILJeCTmAm-1" vertex="1">
                    <mxGeometry x="420" y="40" width="40" height="40" as="geometry"/>
                </mxCell>
                <mxCell id="ChKWI3Nj7KgILJeCTmAm-8" value="20" style="whiteSpace=wrap;html=1;aspect=fixed;fontFamily=Fira Code;" parent="ChKWI3Nj7KgILJeCTmAm-1" vertex="1">
                    <mxGeometry x="260" y="120" width="40" height="40" as="geometry"/>
                </mxCell>
                <mxCell id="ChKWI3Nj7KgILJeCTmAm-9" value="" style="whiteSpace=wrap;html=1;aspect=fixed;fontFamily=Fira Code;" parent="ChKWI3Nj7KgILJeCTmAm-1" vertex="1">
                    <mxGeometry x="300" y="120" width="40" height="40" as="geometry"/>
                </mxCell>
                <mxCell id="ChKWI3Nj7KgILJeCTmAm-10" value="" style="whiteSpace=wrap;html=1;aspect=fixed;fontFamily=Fira Code;" parent="ChKWI3Nj7KgILJeCTmAm-1" vertex="1">
                    <mxGeometry x="340" y="120" width="40" height="40" as="geometry"/>
                </mxCell>
                <mxCell id="ChKWI3Nj7KgILJeCTmAm-11" value="5" style="whiteSpace=wrap;html=1;aspect=fixed;fontFamily=Fira Code;" parent="ChKWI3Nj7KgILJeCTmAm-1" vertex="1">
                    <mxGeometry x="100" y="120" width="40" height="40" as="geometry"/>
                </mxCell>
                <mxCell id="ChKWI3Nj7KgILJeCTmAm-12" value="" style="whiteSpace=wrap;html=1;aspect=fixed;fontFamily=Fira Code;" parent="ChKWI3Nj7KgILJeCTmAm-1" vertex="1">
                    <mxGeometry x="140" y="120" width="40" height="40" as="geometry"/>
                </mxCell>
                <mxCell id="ChKWI3Nj7KgILJeCTmAm-13" style="edgeStyle=none;rounded=0;orthogonalLoop=1;jettySize=auto;html=1;exitX=0.5;exitY=0;exitDx=0;exitDy=0;entryX=0;entryY=1;entryDx=0;entryDy=0;endArrow=none;endFill=0;fontFamily=Fira Code;" parent="ChKWI3Nj7KgILJeCTmAm-1" source="ChKWI3Nj7KgILJeCTmAm-12" target="ChKWI3Nj7KgILJeCTmAm-2" edge="1">
                    <mxGeometry relative="1" as="geometry"/>
                </mxCell>
                <mxCell id="ChKWI3Nj7KgILJeCTmAm-14" value="" style="whiteSpace=wrap;html=1;aspect=fixed;fontFamily=Fira Code;" parent="ChKWI3Nj7KgILJeCTmAm-1" vertex="1">
                    <mxGeometry x="180" y="120" width="40" height="40" as="geometry"/>
                </mxCell>
                <mxCell id="ChKWI3Nj7KgILJeCTmAm-15" value="40" style="whiteSpace=wrap;html=1;aspect=fixed;fontFamily=Fira Code;" parent="ChKWI3Nj7KgILJeCTmAm-1" vertex="1">
                    <mxGeometry x="420" y="120" width="40" height="40" as="geometry"/>
                </mxCell>
                <mxCell id="ChKWI3Nj7KgILJeCTmAm-16" value="" style="whiteSpace=wrap;html=1;aspect=fixed;fontFamily=Fira Code;" parent="ChKWI3Nj7KgILJeCTmAm-1" vertex="1">
                    <mxGeometry x="460" y="120" width="40" height="40" as="geometry"/>
                </mxCell>
                <mxCell id="ChKWI3Nj7KgILJeCTmAm-17" value="" style="whiteSpace=wrap;html=1;aspect=fixed;fontFamily=Fira Code;" parent="ChKWI3Nj7KgILJeCTmAm-1" vertex="1">
                    <mxGeometry x="500" y="120" width="40" height="40" as="geometry"/>
                </mxCell>
                <mxCell id="ChKWI3Nj7KgILJeCTmAm-18" value="60" style="whiteSpace=wrap;html=1;aspect=fixed;fontFamily=Fira Code;" parent="ChKWI3Nj7KgILJeCTmAm-1" vertex="1">
                    <mxGeometry x="580" y="120" width="40" height="40" as="geometry"/>
                </mxCell>
                <mxCell id="ChKWI3Nj7KgILJeCTmAm-19" value="" style="whiteSpace=wrap;html=1;aspect=fixed;fontFamily=Fira Code;" parent="ChKWI3Nj7KgILJeCTmAm-1" vertex="1">
                    <mxGeometry x="620" y="120" width="40" height="40" as="geometry"/>
                </mxCell>
                <mxCell id="ChKWI3Nj7KgILJeCTmAm-20" value="" style="whiteSpace=wrap;html=1;aspect=fixed;fontFamily=Fira Code;" parent="ChKWI3Nj7KgILJeCTmAm-1" vertex="1">
                    <mxGeometry x="660" y="120" width="40" height="40" as="geometry"/>
                </mxCell>
            </root>
        </mxGraphModel>
    </diagram>
    <diagram name="Copy of Copy of Copy of Copy of Copy of Copy of Copy of Copy of Copy of Copy of Copy of Copy of Copy of Copy of Page-1" id="R75x1AEi3nVSna06Aqiy">
        <mxGraphModel dx="1402" dy="860" grid="1" gridSize="10" guides="1" tooltips="1" connect="1" arrows="1" fold="1" page="1" pageScale="1" pageWidth="800" pageHeight="800" math="0" shadow="0">
            <root>
                <mxCell id="VrxK6D8s8RW5_nXzfu3K-0"/>
                <mxCell id="VrxK6D8s8RW5_nXzfu3K-1" parent="VrxK6D8s8RW5_nXzfu3K-0"/>
                <mxCell id="VrxK6D8s8RW5_nXzfu3K-2" value="10" style="whiteSpace=wrap;html=1;aspect=fixed;fontFamily=Fira Code;" parent="VrxK6D8s8RW5_nXzfu3K-1" vertex="1">
                    <mxGeometry x="340" y="40" width="40" height="40" as="geometry"/>
                </mxCell>
                <mxCell id="VrxK6D8s8RW5_nXzfu3K-3" style="edgeStyle=none;rounded=0;orthogonalLoop=1;jettySize=auto;html=1;exitX=0;exitY=1;exitDx=0;exitDy=0;entryX=0.5;entryY=0;entryDx=0;entryDy=0;endArrow=none;endFill=0;fontFamily=Fira Code;" parent="VrxK6D8s8RW5_nXzfu3K-1" source="VrxK6D8s8RW5_nXzfu3K-4" target="VrxK6D8s8RW5_nXzfu3K-9" edge="1">
                    <mxGeometry relative="1" as="geometry"/>
                </mxCell>
                <mxCell id="VrxK6D8s8RW5_nXzfu3K-4" value="30" style="whiteSpace=wrap;html=1;aspect=fixed;fontFamily=Fira Code;" parent="VrxK6D8s8RW5_nXzfu3K-1" vertex="1">
                    <mxGeometry x="380" y="40" width="40" height="40" as="geometry"/>
                </mxCell>
                <mxCell id="VrxK6D8s8RW5_nXzfu3K-5" style="rounded=0;orthogonalLoop=1;jettySize=auto;html=1;exitX=0;exitY=1;exitDx=0;exitDy=0;entryX=0.5;entryY=0;entryDx=0;entryDy=0;endArrow=none;endFill=0;" parent="VrxK6D8s8RW5_nXzfu3K-1" source="VrxK6D8s8RW5_nXzfu3K-7" target="VrxK6D8s8RW5_nXzfu3K-16" edge="1">
                    <mxGeometry relative="1" as="geometry"/>
                </mxCell>
                <mxCell id="VrxK6D8s8RW5_nXzfu3K-6" style="edgeStyle=none;rounded=0;orthogonalLoop=1;jettySize=auto;html=1;exitX=1;exitY=1;exitDx=0;exitDy=0;entryX=0.5;entryY=0;entryDx=0;entryDy=0;endArrow=none;endFill=0;" parent="VrxK6D8s8RW5_nXzfu3K-1" source="VrxK6D8s8RW5_nXzfu3K-7" target="VrxK6D8s8RW5_nXzfu3K-19" edge="1">
                    <mxGeometry relative="1" as="geometry"/>
                </mxCell>
                <mxCell id="VrxK6D8s8RW5_nXzfu3K-7" value="50" style="whiteSpace=wrap;html=1;aspect=fixed;fontFamily=Fira Code;" parent="VrxK6D8s8RW5_nXzfu3K-1" vertex="1">
                    <mxGeometry x="420" y="40" width="40" height="40" as="geometry"/>
                </mxCell>
                <mxCell id="VrxK6D8s8RW5_nXzfu3K-8" value="20" style="whiteSpace=wrap;html=1;aspect=fixed;fontFamily=Fira Code;" parent="VrxK6D8s8RW5_nXzfu3K-1" vertex="1">
                    <mxGeometry x="260" y="120" width="40" height="40" as="geometry"/>
                </mxCell>
                <mxCell id="VrxK6D8s8RW5_nXzfu3K-9" value="" style="whiteSpace=wrap;html=1;aspect=fixed;fontFamily=Fira Code;" parent="VrxK6D8s8RW5_nXzfu3K-1" vertex="1">
                    <mxGeometry x="300" y="120" width="40" height="40" as="geometry"/>
                </mxCell>
                <mxCell id="VrxK6D8s8RW5_nXzfu3K-10" value="" style="whiteSpace=wrap;html=1;aspect=fixed;fontFamily=Fira Code;" parent="VrxK6D8s8RW5_nXzfu3K-1" vertex="1">
                    <mxGeometry x="340" y="120" width="40" height="40" as="geometry"/>
                </mxCell>
                <mxCell id="VrxK6D8s8RW5_nXzfu3K-11" value="5" style="whiteSpace=wrap;html=1;aspect=fixed;fontFamily=Fira Code;" parent="VrxK6D8s8RW5_nXzfu3K-1" vertex="1">
                    <mxGeometry x="100" y="120" width="40" height="40" as="geometry"/>
                </mxCell>
                <mxCell id="VrxK6D8s8RW5_nXzfu3K-12" value="" style="whiteSpace=wrap;html=1;aspect=fixed;fontFamily=Fira Code;" parent="VrxK6D8s8RW5_nXzfu3K-1" vertex="1">
                    <mxGeometry x="140" y="120" width="40" height="40" as="geometry"/>
                </mxCell>
                <mxCell id="VrxK6D8s8RW5_nXzfu3K-13" style="edgeStyle=none;rounded=0;orthogonalLoop=1;jettySize=auto;html=1;exitX=0.5;exitY=0;exitDx=0;exitDy=0;entryX=0;entryY=1;entryDx=0;entryDy=0;endArrow=none;endFill=0;fontFamily=Fira Code;" parent="VrxK6D8s8RW5_nXzfu3K-1" source="VrxK6D8s8RW5_nXzfu3K-12" target="VrxK6D8s8RW5_nXzfu3K-2" edge="1">
                    <mxGeometry relative="1" as="geometry"/>
                </mxCell>
                <mxCell id="VrxK6D8s8RW5_nXzfu3K-14" value="" style="whiteSpace=wrap;html=1;aspect=fixed;fontFamily=Fira Code;" parent="VrxK6D8s8RW5_nXzfu3K-1" vertex="1">
                    <mxGeometry x="180" y="120" width="40" height="40" as="geometry"/>
                </mxCell>
                <mxCell id="VrxK6D8s8RW5_nXzfu3K-15" value="40" style="whiteSpace=wrap;html=1;aspect=fixed;fontFamily=Fira Code;" parent="VrxK6D8s8RW5_nXzfu3K-1" vertex="1">
                    <mxGeometry x="420" y="120" width="40" height="40" as="geometry"/>
                </mxCell>
                <mxCell id="VrxK6D8s8RW5_nXzfu3K-16" value="" style="whiteSpace=wrap;html=1;aspect=fixed;fontFamily=Fira Code;" parent="VrxK6D8s8RW5_nXzfu3K-1" vertex="1">
                    <mxGeometry x="460" y="120" width="40" height="40" as="geometry"/>
                </mxCell>
                <mxCell id="VrxK6D8s8RW5_nXzfu3K-17" value="" style="whiteSpace=wrap;html=1;aspect=fixed;fontFamily=Fira Code;" parent="VrxK6D8s8RW5_nXzfu3K-1" vertex="1">
                    <mxGeometry x="500" y="120" width="40" height="40" as="geometry"/>
                </mxCell>
                <mxCell id="VrxK6D8s8RW5_nXzfu3K-18" value="60" style="whiteSpace=wrap;html=1;aspect=fixed;fontFamily=Fira Code;" parent="VrxK6D8s8RW5_nXzfu3K-1" vertex="1">
                    <mxGeometry x="580" y="120" width="40" height="40" as="geometry"/>
                </mxCell>
                <mxCell id="VrxK6D8s8RW5_nXzfu3K-19" value="70" style="whiteSpace=wrap;html=1;aspect=fixed;fontFamily=Fira Code;" parent="VrxK6D8s8RW5_nXzfu3K-1" vertex="1">
                    <mxGeometry x="620" y="120" width="40" height="40" as="geometry"/>
                </mxCell>
                <mxCell id="VrxK6D8s8RW5_nXzfu3K-20" value="" style="whiteSpace=wrap;html=1;aspect=fixed;fontFamily=Fira Code;" parent="VrxK6D8s8RW5_nXzfu3K-1" vertex="1">
                    <mxGeometry x="660" y="120" width="40" height="40" as="geometry"/>
                </mxCell>
            </root>
        </mxGraphModel>
    </diagram>
</mxfile>